<svg id="icon-moon" xmlns="http://www.w3.org/2000/svg" viewBox="0 0 15 15" width="15px">
  <path d="M13.42.23c-.12-.31-.55-.31-.67,0l-.32.82c-.04.09-.11.17-.2.21l-.82.32c-.31.12-.31.56,0,.68l.82.32c.09.04.17.11.2.21l.32.82c.12.31.55.31.67,0l.32-.82c.04-.09.11-.17.2-.21l.82-.32c.31-.12.31-.56,0-.68l-.82-.32c-.09-.04-.17-.11-.2-.21l-.32-.82Z" fill="#1E2028"/>
  <path d="M10.52,4.6c-.12-.31-.55-.31-.67,0l-.12.3c-.04.09-.11.17-.2.21l-.3.12c-.31.12-.31.56,0,.68l.3.12c.09.04.17.11.2.21l.12.3c.12.31.55.31.67,0l.12-.3c.04-.09.11-.17.2-.21l.3-.12c.31-.12.31-.56,0-.68l-.3-.12c-.09-.04-.17-.11-.2-.21l-.12-.3Z" fill="#1E2028"/>
  <path d="M7.5,15c4.14,0,7.5-3.36,7.5-7.5,0-.35-.52-.4-.7-.11-.85,1.41-2.4,2.36-4.18,2.36-2.69,0-4.87-2.18-4.87-4.87,0-1.77.94-3.32,2.36-4.18C7.9.52,7.85,0,7.5,0,3.36,0,0,3.36,0,7.5s3.36,7.5,7.5,7.5Z" fill="#1E2028"/>
</svg>