<svg id="icon-sun" xmlns="http://www.w3.org/2000/svg" viewBox="0 0 15 15" width="15px">
  <path d="M10.99,7.5c0,1.93-1.56,3.49-3.49,3.49s-3.49-1.56-3.49-3.49,1.56-3.49,3.49-3.49,3.49,1.56,3.49,3.49Z" fill="#1E2028"/>
  <path d="M7.5,0c.29,0,.52.23.52.52v1.4c0,.29-.23.52-.52.52s-.52-.23-.52-.52V.52c0-.29.23-.52.52-.52ZM1.69,1.72c.2-.21.53-.23.74-.03l1.55,1.42c.21.2.23.53.03.74s-.53.23-.74.03l-1.55-1.42c-.21-.2-.23-.53-.03-.74ZM13.31,1.72c.2.21.18.54-.03.74l-1.55,1.42c-.21.2-.54.18-.74-.03-.2-.21-.18-.54.03-.74l1.55-1.42c.21-.2.54-.18.74.03ZM0,7.5c0-.29.23-.52.52-.52h1.4c.29,0,.52.23.52.52s-.23.52-.52.52H.52c-.29,0-.52-.23-.52-.52ZM12.56,7.5c0-.29.23-.52.52-.52h1.4c.29,0,.52.23.52.52s-.23.52-.52.52h-1.4c-.29,0-.52-.23-.52-.52ZM11.01,11.01c.2-.2.54-.2.74,0l1.55,1.55c.2.2.2.54,0,.74s-.54.2-.74,0l-1.55-1.55c-.2-.2-.2-.54,0-.74ZM3.99,11.01c.2.2.2.54,0,.74l-1.55,1.55c-.2.2-.54.2-.74,0-.2-.2-.2-.54,0-.74l1.55-1.55c.2-.2.54-.2.74,0ZM7.5,12.56c.29,0,.52.23.52.52v1.4c0,.29-.23.52-.52.52s-.52-.23-.52-.52v-1.4c0-.29.23-.52.52-.52Z" fill="#1E2028"/>
</svg>